<?xml version="1.0" encoding="UTF-8"?>
<svg version="1.1" xmlns="http://www.w3.org/2000/svg" width="825" height="545">
<path d="M0 0 C272.25 0 544.5 0 825 0 C825 179.85 825 359.7 825 545 C552.75 545 280.5 545 0 545 C0 365.15 0 185.3 0 0 Z " fill="#1D1D1D" transform="translate(0,0)"/>
<path d="M0 0 C23.76 0 47.52 0 72 0 C69.67857143 23.21428571 69.67857143 23.21428571 68 32 C65.03 32 62.06 32 59 32 C59 33.98 59 35.96 59 38 C61.64 38 64.28 38 67 38 C67 38.99 67 39.98 67 41 C46.54 41 26.08 41 5 41 C5 40.01 5 39.02 5 38 C7.64 38 10.28 38 13 38 C12.67 36.35 12.34 34.7 12 33 C9.03 32.67 6.06 32.34 3 32 C2.49432626 27.79232825 1.9964646 23.58376747 1.5 19.375 C1.35691406 18.18519531 1.21382813 16.99539063 1.06640625 15.76953125 C0.93105469 14.61582031 0.79570312 13.46210938 0.65625 12.2734375 C0.53056641 11.21560059 0.40488281 10.15776367 0.27539062 9.06787109 C0.0050237 6.05596432 0 3.02401731 0 0 Z " fill="#FEFEFE" transform="translate(365,280)"/>
<path d="M0 0 C1.85227252 0.09357692 3.7078718 0.12993909 5.5625 0.125 C7.01849609 0.12886719 7.01849609 0.12886719 8.50390625 0.1328125 C10.99952953 0.16650953 10.99952953 0.16650953 13 -1 C24.34956008 -1.83358351 37.07883904 -1.08925188 47 5 C49.57701974 8.36475504 50.52161655 11.51324336 51.375 15.625 C52.62184437 20.98181283 54.50282199 25.64712274 56.859375 30.6015625 C59.36233113 35.86462779 60.53275707 40.13967225 60 46 C58.31348171 49.71034025 56.48555135 51.91447844 53 54 C49.546875 54.51171875 49.546875 54.51171875 45.75 54.6875 C44.48671875 54.75324219 43.2234375 54.81898438 41.921875 54.88671875 C40.47554687 54.94279297 40.47554687 54.94279297 39 55 C39 53.35 39 51.7 39 50 C36.36 50 33.72 50 31 50 C31 49.34 31 48.68 31 48 C33.97 48 36.94 48 40 48 C40.08564209 47.19369141 40.17128418 46.38738281 40.25952148 45.55664062 C40.65142376 41.87101278 41.0444525 38.18550588 41.4375 34.5 C41.63956055 32.59734375 41.63956055 32.59734375 41.84570312 30.65625 C42.04389648 28.8 42.04389648 28.8 42.24609375 26.90625 C42.36654053 25.77509766 42.4869873 24.64394531 42.61108398 23.47851562 C43.0393218 19.64830066 43.52196018 15.82431853 44 12 C18.92 12 -6.16 12 -32 12 C-30.68 23.88 -29.36 35.76 -28 48 C-25.03 48 -22.06 48 -19 48 C-19 48.66 -19 49.32 -19 50 C-21.64 50.33 -24.28 50.66 -27 51 C-27 52.32 -27 53.64 -27 55 C-29.22988284 54.91249445 -31.45896005 54.80430939 -33.6875 54.6875 C-34.92886719 54.62949219 -36.17023438 54.57148438 -37.44921875 54.51171875 C-41.1004128 53.98552907 -43.0733311 53.19500167 -46 51 C-48.42466254 46.95889577 -48.75576248 42.58747823 -48 38 C-46.56305186 33.89364435 -44.79079208 29.96226151 -43 26 C-41.25255733 21.80760604 -39.90155606 17.76897225 -39 13.3125 C-38.20796491 9.6603382 -37.53080495 6.86824561 -35 4 C-25.06364095 -0.79074454 -10.63139023 -3.54379674 0 0 Z " fill="#F8F8F8" transform="translate(395,266)"/>
<path d="M0 0 C5.69670091 4.39809812 10.12714707 9.67910451 11.1875 16.9453125 C11.38506943 24.81322451 9.59593309 30.96273053 4.4296875 37.03125 C-0.34980669 41.41790905 -6.22685666 43.50565017 -12.62109375 43.83984375 C-18.69439008 43.5785143 -23.76301594 41.65232846 -28.234375 37.49609375 C-34.35159354 30.70762763 -35.71725284 26.16197341 -35.5546875 16.953125 C-34.91261574 10.80951202 -32.69673659 6.75126141 -28.2109375 2.55859375 C-20.28556287 -3.72245082 -9.02882422 -5.29665888 0 0 Z " fill="#FCFCFC" transform="translate(413.18359375,221.59765625)"/>
<path d="M0 0 C2.97 0 5.94 0 9 0 C11.125 5.625 11.125 5.625 10 9 C9.34 9 8.68 9 8 9 C8 9.66 8 10.32 8 11 C9.32 10.67 10.64 10.34 12 10 C12 10.99 12 11.98 12 13 C12.66 13 13.32 13 14 13 C14.06058594 12.22914063 14.12117187 11.45828125 14.18359375 10.6640625 C14.26738281 9.66117187 14.35117188 8.65828125 14.4375 7.625 C14.51871094 6.62726563 14.59992188 5.62953125 14.68359375 4.6015625 C15 2 15 2 16 0 C19.3 0 22.6 0 26 0 C27.15136362 8.18646731 27.11414983 16.31509354 27.0625 24.5625 C27.05747366 25.96679527 27.05291276 27.3710923 27.04882812 28.77539062 C27.03711593 32.18363903 27.02071372 35.5917964 27 39 C24.66705225 39.04241723 22.33297433 39.04092937 20 39 C17.36363098 36.36363098 18.19813972 27.14192986 18 24 C17.01 28.95 16.02 33.9 15 39 C13.68 39 12.36 39 11 39 C10.93941406 38.30132812 10.87882813 37.60265625 10.81640625 36.8828125 C10.73261719 35.97273438 10.64882812 35.06265625 10.5625 34.125 C10.48128906 33.22007812 10.40007812 32.31515625 10.31640625 31.3828125 C10.13010715 28.98889139 10.13010715 28.98889139 9 27 C9.33 26.34 9.66 25.68 10 25 C9.34 25 8.68 25 8 25 C7.67 29.62 7.34 34.24 7 39 C4.69 39 2.38 39 0 39 C-0.07420211 34.92497206 -0.1286257 30.85020608 -0.16479492 26.7746582 C-0.17987397 25.38852081 -0.2003405 24.00243106 -0.22631836 22.61645508 C-0.26273716 20.62341854 -0.27813018 18.63003277 -0.29296875 16.63671875 C-0.31653442 14.83787231 -0.31653442 14.83787231 -0.34057617 13.00268555 C0 10 0 10 1.51831055 8.08520508 C2.25174683 7.54802856 2.25174683 7.54802856 3 7 C2.67 6.67 2.34 6.34 2 6 C1.34 6.66 0.68 7.32 0 8 C0 5.36 0 2.72 0 0 Z " fill="#EFEFEF" transform="translate(145,250)"/>
<path d="M0 0 C0.81339844 -0.02191406 1.62679687 -0.04382813 2.46484375 -0.06640625 C6.22886852 0.84488396 8.87348657 2.39252905 11.0625 5.5625 C11.84568791 8.9849445 11.72001367 12.25762663 11.5625 15.75 C11.5521875 16.64525391 11.541875 17.54050781 11.53125 18.46289062 C11.16622685 34.26154876 11.16622685 34.26154876 7.0625 38.75 C2.64606728 39.9461172 -1.49167126 39.56469529 -5.9375 38.5625 C-8.9375 36.5625 -8.9375 36.5625 -9.9375 33.5625 C-10.20848234 29.43293492 -10.25058635 25.30353537 -10.28759766 21.16577148 C-10.30417949 19.80687358 -10.33150001 18.44806369 -10.36962891 17.08959961 C-10.42444559 15.12406382 -10.44314366 13.15762576 -10.4609375 11.19140625 C-10.48075684 10.01650635 -10.50057617 8.84160645 -10.52099609 7.63110352 C-9.9375 4.5625 -9.9375 4.5625 -7.55883789 2.18359375 C-4.75358139 0.44876063 -3.2645047 -0.0051572 0 0 Z " fill="#E7E7E7" transform="translate(517.9375,249.4375)"/>
<path d="M0 0 C0.86882812 0.15984375 1.73765625 0.3196875 2.6328125 0.484375 C4.875 1.25 4.875 1.25 6.875 4.25 C7.32765036 8.35608744 7.33143838 12.46257855 7.35546875 16.59179688 C7.37487854 18.61235569 7.43691821 20.62883457 7.5 22.6484375 C7.57638351 32.11999323 7.57638351 32.11999323 5.62695312 35.26074219 C2.98386583 37.57880564 0.83360638 38.25591337 -2.625 38.75 C-6.40721283 38.20968388 -8.91584995 37.31302503 -12.125 35.25 C-13.79187925 30.24936224 -13.38923898 25.0357385 -13.42016602 19.79833984 C-13.43172289 18.43267486 -13.45223335 17.06705634 -13.48168945 15.70166016 C-13.52425309 13.72851475 -13.53791449 11.75481249 -13.55078125 9.78125 C-13.56536377 8.60111328 -13.57994629 7.42097656 -13.5949707 6.20507812 C-13.125 3.25 -13.125 3.25 -11.21899414 1.38769531 C-7.19666464 -0.79769066 -4.47903077 -0.88243591 0 0 Z " fill="#F9F9F9" transform="translate(284.125,250.75)"/>
<path d="M0 0 C1.45210539 0.06278653 2.9039391 0.1321054 4.35546875 0.20703125 C5.08056641 0.22572266 5.80566406 0.24441406 6.55273438 0.26367188 C9.93656312 0.4401387 12.19880533 0.78774772 15.03125 2.6953125 C16.96007381 5.6608168 17.01467437 7.50296335 16.91796875 11.01953125 C16.89863281 12.56640625 16.89863281 12.56640625 16.87890625 14.14453125 C16.55388704 16.92609097 15.97217758 18.64132776 14.54296875 21.01953125 C15.20296875 22.00953125 15.86296875 22.99953125 16.54296875 24.01953125 C16.84287944 26.60838296 17.051621 29.11102207 17.16796875 31.70703125 C17.20664062 32.40892578 17.2453125 33.11082031 17.28515625 33.83398438 C17.37920215 35.5620778 17.46216555 37.290768 17.54296875 39.01953125 C14.90296875 39.01953125 12.26296875 39.01953125 9.54296875 39.01953125 C8.12662042 36.18683459 8.19666825 33.54486687 7.98046875 30.39453125 C7.85478516 28.61175781 7.85478516 28.61175781 7.7265625 26.79296875 C7.66597656 25.87773437 7.60539062 24.9625 7.54296875 24.01953125 C6.55296875 23.68953125 5.56296875 23.35953125 4.54296875 23.01953125 C4.55457031 24.09074219 4.56617188 25.16195313 4.578125 26.265625 C4.58750174 27.66275868 4.59660206 29.05989424 4.60546875 30.45703125 C4.61384766 31.16408203 4.62222656 31.87113281 4.63085938 32.59960938 C4.63950463 34.40646684 4.59516886 36.21340728 4.54296875 38.01953125 C3.54296875 39.01953125 3.54296875 39.01953125 0.04296875 39.14453125 C-3.45703125 39.01953125 -3.45703125 39.01953125 -4.45703125 38.01953125 C-4.55802613 35.29228846 -4.59673654 32.59090602 -4.58984375 29.86328125 C-4.59080048 29.04581421 -4.5917572 28.22834717 -4.59274292 27.3861084 C-4.5934247 25.65437747 -4.59157054 23.92264401 -4.58740234 22.19091797 C-4.58205404 19.53086643 -4.58734737 16.87098375 -4.59375 14.2109375 C-4.59308922 12.53255171 -4.59180805 10.85416602 -4.58984375 9.17578125 C-4.59186798 8.37474976 -4.59389221 7.57371826 -4.59597778 6.74841309 C-4.56724319 0.02580363 -4.56724319 0.02580363 0 0 Z " fill="#F4F4F4" transform="translate(304.45703125,249.98046875)"/>
<path d="M0 0 C1.80078125 0.8828125 1.80078125 0.8828125 2.8828125 2.703125 C4.53713162 7.92263452 5.05361907 11.52977819 3.80078125 16.8828125 C4.46078125 15.8928125 5.12078125 14.9028125 5.80078125 13.8828125 C5.80078125 14.5428125 5.80078125 15.2028125 5.80078125 15.8828125 C6.46078125 15.8828125 7.12078125 15.8828125 7.80078125 15.8828125 C7.80078125 10.6028125 7.80078125 5.3228125 7.80078125 -0.1171875 C10.11078125 -0.1171875 12.42078125 -0.1171875 14.80078125 -0.1171875 C14.98020288 3.83008838 14.89428814 6.4808638 12.80078125 9.8828125 C13.46078125 10.5428125 14.12078125 11.2028125 14.80078125 11.8828125 C14.14078125 11.8828125 13.48078125 11.8828125 12.80078125 11.8828125 C12.49140625 12.6665625 12.18203125 13.4503125 11.86328125 14.2578125 C10.80078125 16.8828125 10.80078125 16.8828125 9.80078125 18.8828125 C11.45078125 18.5528125 13.10078125 18.2228125 14.80078125 17.8828125 C14.80078125 24.8128125 14.80078125 31.7428125 14.80078125 38.8828125 C12.16078125 38.8828125 9.52078125 38.8828125 6.80078125 38.8828125 C4.80078125 32.8828125 2.80078125 26.8828125 0.80078125 20.8828125 C0.47078125 26.4928125 0.14078125 32.1028125 -0.19921875 37.8828125 C-2.50921875 37.8828125 -4.81921875 37.8828125 -7.19921875 37.8828125 C-7.19921875 26.0028125 -7.19921875 14.1228125 -7.19921875 1.8828125 C-2.19921875 -0.1171875 -2.19921875 -0.1171875 0 0 Z " fill="#E6E6E6" transform="translate(545.19921875,250.1171875)"/>
<path d="M0 0 C2.31 0 4.62 0 7 0 C7 1.98 7 3.96 7 6 C6.01 6.33 5.02 6.66 4 7 C4.7763932 10.0745356 4.7763932 10.0745356 7 12 C6.67 12.66 6.34 13.32 6 14 C5.34 14 4.68 14 4 14 C3.67 14.99 3.34 15.98 3 17 C2.34 17.99 1.68 18.98 1 20 C1.99 20.33 2.98 20.66 4 21 C4 20.34 4 19.68 4 19 C4.99 19 5.98 19 7 19 C7 25.6 7 32.2 7 39 C4.69 39 2.38 39 0 39 C-3.4152658 35.46276042 -4.16369079 30.18551464 -5.3515625 25.5234375 C-5.82975903 23.66250402 -6.39240266 21.82279203 -7 20 C-7.33 25.94 -7.66 31.88 -8 38 C-10.31 38 -12.62 38 -15 38 C-15 25.79 -15 13.58 -15 1 C-12.03 1 -9.06 1 -6 1 C-5.49242138 2.41396902 -4.99425075 3.83131729 -4.5 5.25 C-4.2215625 6.03890625 -3.943125 6.8278125 -3.65625 7.640625 C-3 10 -3 10 -3 14 C-2.34 14 -1.68 14 -1 14 C-0.22887459 9.27685687 0.09764874 4.78478822 0 0 Z " fill="#F0F0F0" transform="translate(225,250)"/>
<path d="M0 0 C3.3 0 6.6 0 10 0 C10 179.85 10 359.7 10 545 C6.37 545 2.74 545 -1 545 C-0.01 544.34 0.98 543.68 2 543 C6.89029347 538.56064973 6.89029347 538.56064973 8.12880117 532.37936759 C8.13576093 530.76636237 8.13707504 529.15332762 8.13422108 527.54030991 C8.13657331 526.65002686 8.13892554 525.75974382 8.14134905 524.84248251 C8.14806506 521.82594559 8.14758004 518.8094515 8.14717102 515.79290771 C8.15046802 513.6216873 8.15419324 511.45046749 8.1583125 509.27924848 C8.16835916 503.28672054 8.17205356 497.29420262 8.17470181 491.30166745 C8.17859696 484.84889882 8.18817579 478.39613818 8.19691467 471.94337463 C8.21604843 457.0848278 8.22593827 442.22627975 8.23437535 427.36772358 C8.23857936 420.02839394 8.24380167 412.68906513 8.24905988 405.34973618 C8.26695122 380.23642853 8.2819483 355.12312066 8.28938007 330.00980759 C8.28985483 328.43268484 8.29033072 326.8555621 8.29080774 325.27843936 C8.29104411 324.49631247 8.29128049 323.71418558 8.29152403 322.90835788 C8.29272525 318.94557843 8.29394069 314.98279898 8.29516602 311.02001953 C8.29540617 310.23358776 8.29564632 309.44715599 8.29589374 308.63689295 C8.30378887 283.1317219 8.32722451 257.62659732 8.35972196 232.12144656 C8.39400116 205.16881525 8.41372943 178.21621114 8.41702431 151.26355767 C8.41744187 148.30613978 8.41792143 145.3487219 8.41844749 142.39130402 C8.41863228 141.29896987 8.41863228 141.29896987 8.4188208 140.18456837 C8.42115519 128.45320444 8.43682841 116.72189438 8.45728934 104.99054966 C8.47752105 93.20384832 8.48270317 81.41721744 8.47351871 69.6305019 C8.46895833 63.24198772 8.47096092 56.85364886 8.49028015 50.46515846 C8.50780065 44.62118814 8.50700491 38.77752249 8.49138286 32.93354943 C8.48898981 30.81507405 8.4934173 28.69657817 8.50521151 26.57813427 C8.52021586 23.70606646 8.51073739 20.83509425 8.49498463 17.96305466 C8.50520683 17.13389839 8.51542904 16.30474212 8.52596101 15.4504599 C8.46248776 10.17521751 7.51836972 7.16565137 4 3 C2.68 2.01 1.36 1.02 0 0 Z " fill="#FFFFFF" transform="translate(815,0)"/>
<path d="M0 0 C4.05655342 0.09979943 4.96993918 0.33030256 8.3125 2.9375 C10.97699577 6.83607803 10.64125395 10.96246046 10.1875 15.5 C7.8775 15.5 5.5675 15.5 3.1875 15.5 C2.8575 13.52 2.5275 11.54 2.1875 9.5 C0.8675 9.17 -0.4525 8.84 -1.8125 8.5 C-1.4825 16.42 -1.1525 24.34 -0.8125 32.5 C0.1775 32.17 1.1675 31.84 2.1875 31.5 C2.5175 27.87 2.8475 24.24 3.1875 20.5 C5.4975 20.5 7.8075 20.5 10.1875 20.5 C10.24148987 22.77057377 10.28028742 25.04151288 10.3125 27.3125 C10.33570313 28.57707031 10.35890625 29.84164063 10.3828125 31.14453125 C10.1875 34.5 10.1875 34.5 8.1875 37.5 C3.1782286 39.46442016 -0.58619086 39.80657729 -5.8125 38.5 C-8.39705285 36.60466125 -8.77525506 35.61173483 -9.8125 32.5 C-10.07225767 28.37929884 -10.04390535 24.25301187 -10.0625 20.125 C-10.083125 18.98804688 -10.10375 17.85109375 -10.125 16.6796875 C-10.13015625 15.58140625 -10.1353125 14.483125 -10.140625 13.3515625 C-10.1499707 12.34947754 -10.15931641 11.34739258 -10.16894531 10.31494141 C-9.38438068 4.11903029 -6.23604195 0.22438532 0 0 Z " fill="#D2D2D2" transform="translate(638.8125,249.5)"/>
<path d="M0 0 C6.27 0 12.54 0 19 0 C19 2.31 19 4.62 19 7 C15.37 7 11.74 7 8 7 C8.33 9.31 8.66 11.62 9 14 C11.64 14.33 14.28 14.66 17 15 C17 17.64 17 20.28 17 23 C14.03 23.33 11.06 23.66 8 24 C8 26.31 8 28.62 8 31 C11.96 31 15.92 31 20 31 C20 33.64 20 36.28 20 39 C17.03 39 14.06 39 11 39 C10.67 38.34 10.34 37.68 10 37 C9.34 37.66 8.68 38.32 8 39 C5.36 39 2.72 39 0 39 C0 26.13 0 13.26 0 0 Z " fill="#F9F9F9" transform="translate(600,250)"/>
<path d="M0 0 C5.94 0 11.88 0 18 0 C19 1 19 1 19.0625 4.0625 C19.041875 5.031875 19.02125 6.00125 19 7 C15.37 7 11.74 7 8 7 C8.33 9.31 8.66 11.62 9 14 C11.64 14.33 14.28 14.66 17 15 C17 17.64 17 20.28 17 23 C13.04 23.495 13.04 23.495 9 24 C8.67 26.31 8.34 28.62 8 31 C8.61488281 30.98839844 9.22976562 30.97679687 9.86328125 30.96484375 C10.67152344 30.95582031 11.47976562 30.94679688 12.3125 30.9375 C13.51326172 30.92009766 13.51326172 30.92009766 14.73828125 30.90234375 C17 31 17 31 20 32 C20 34.31 20 36.62 20 39 C17.03 39 14.06 39 11 39 C10.67 38.34 10.34 37.68 10 37 C9.34 37.66 8.68 38.32 8 39 C5.36 39 2.72 39 0 39 C0 26.13 0 13.26 0 0 Z " fill="#F6F6F6" transform="translate(181,250)"/>
<path d="M0 0 C1.80078125 0.8828125 1.80078125 0.8828125 2.8828125 2.703125 C4.53713162 7.92263452 5.05361907 11.52977819 3.80078125 16.8828125 C4.56390625 17.0271875 5.32703125 17.1715625 6.11328125 17.3203125 C8.80078125 17.8828125 8.80078125 17.8828125 11.80078125 18.8828125 C12.79078125 18.5528125 13.78078125 18.2228125 14.80078125 17.8828125 C14.80078125 24.8128125 14.80078125 31.7428125 14.80078125 38.8828125 C12.16078125 38.8828125 9.52078125 38.8828125 6.80078125 38.8828125 C4.80078125 32.8828125 2.80078125 26.8828125 0.80078125 20.8828125 C0.47078125 26.4928125 0.14078125 32.1028125 -0.19921875 37.8828125 C-2.50921875 37.8828125 -4.81921875 37.8828125 -7.19921875 37.8828125 C-7.19921875 26.0028125 -7.19921875 14.1228125 -7.19921875 1.8828125 C-2.19921875 -0.1171875 -2.19921875 -0.1171875 0 0 Z " fill="#FBFBFB" transform="translate(576.19921875,250.1171875)"/>
<path d="M0 0 C2.86199108 1.6694948 4.45313942 2.78008024 5.8125 5.8125 C6.07558666 8.88184434 6.05919733 11.92173905 6 15 C3.69 15 1.38 15 -1 15 C-1.33 13.02 -1.66 11.04 -2 9 C-3.32 9 -4.64 9 -6 9 C-6.02895225 12.29164829 -6.0467823 15.58326399 -6.0625 18.875 C-6.07087891 19.81214844 -6.07925781 20.74929688 -6.08789062 21.71484375 C-6.09272461 23.05869141 -6.09272461 23.05869141 -6.09765625 24.4296875 C-6.10551147 25.67081299 -6.10551147 25.67081299 -6.11352539 26.93701172 C-6.13352138 29.06411757 -6.13352138 29.06411757 -5 31 C-3.35 31 -1.7 31 0 31 C-0.33 30.34 -0.66 29.68 -1 29 C-1.06950541 27.45976004 -1.08452357 25.91665012 -1.0625 24.375 C-1.05347656 23.55773437 -1.04445313 22.74046875 -1.03515625 21.8984375 C-1.02355469 21.27195312 -1.01195312 20.64546875 -1 20 C1.31 20 3.62 20 6 20 C5.88597936 22.27141109 5.75841495 24.54214552 5.625 26.8125 C5.55539062 28.07707031 5.48578125 29.34164063 5.4140625 30.64453125 C5 34 5 34 3 37 C-1.70924695 38.81124883 -5.11604602 39.33198745 -10 38 C-13 36 -13 36 -14 33 C-14.23592291 28.52460194 -14.18517947 24.04344937 -14.1875 19.5625 C-14.19974609 18.32177734 -14.21199219 17.08105469 -14.22460938 15.80273438 C-14.22654297 14.61099609 -14.22847656 13.41925781 -14.23046875 12.19140625 C-14.23457764 11.10029541 -14.23868652 10.00918457 -14.24291992 8.88500977 C-13.99907307 5.9889914 -13.61416573 4.39151838 -12 2 C-7.97228025 -0.6851465 -4.73200285 -0.68074427 0 0 Z " fill="#F7F7F7" transform="translate(493,250)"/>
<path d="M0 0 C7.26 0 14.52 0 22 0 C22.33 2.31 22.66 4.62 23 7 C21.02 7.33 19.04 7.66 17 8 C16.67 17.9 16.34 27.8 16 38 C13.03 38 10.06 38 7 38 C7 28.43 7 18.86 7 9 C4.69 8.34 2.38 7.68 0 7 C0 4.69 0 2.38 0 0 Z " fill="#E7E7E7" transform="translate(658,251)"/>
<path d="M0 0 C0.89460937 -0.00128906 1.78921875 -0.00257813 2.7109375 -0.00390625 C3.65195313 -0.00003906 4.59296875 0.00382813 5.5625 0.0078125 C6.97402344 0.00201172 6.97402344 0.00201172 8.4140625 -0.00390625 C9.75597656 -0.00197266 9.75597656 -0.00197266 11.125 0 C11.95128906 0.00112793 12.77757812 0.00225586 13.62890625 0.00341797 C15.5625 0.1328125 15.5625 0.1328125 16.5625 1.1328125 C16.60330783 3.13239614 16.60504356 5.13326504 16.5625 7.1328125 C14.2525 7.4628125 11.9425 7.7928125 9.5625 8.1328125 C9.5625 18.0328125 9.5625 27.9328125 9.5625 38.1328125 C6.9225 38.1328125 4.2825 38.1328125 1.5625 38.1328125 C1.5625 28.2328125 1.5625 18.3328125 1.5625 8.1328125 C-0.7475 8.1328125 -3.0575 8.1328125 -5.4375 8.1328125 C-5.47991723 5.79986475 -5.47842937 3.46578683 -5.4375 1.1328125 C-3.84812444 -0.45656306 -2.19850154 0.00300107 0 0 Z " fill="#F0F0F0" transform="translate(245.4375,250.8671875)"/>
<path d="M0 0 C1.67542976 0.28604898 3.34385343 0.61781233 5 1 C5 2.98 5 4.96 5 7 C6.98 7 8.96 7 11 7 C12.68618252 10.37236503 12.35296693 14.10761976 12.4375 17.8125 C12.48326172 18.62009766 12.52902344 19.42769531 12.57617188 20.25976562 C12.68552805 26.06515193 12.68552805 26.06515193 10.76953125 28.67797852 C7.82798561 31.28278 6.06687447 31.9946069 2.125 32.3125 C1.09375 32.209375 0.0625 32.10625 -1 32 C0.32 31.67 1.64 31.34 3 31 C3 30.34 3 29.68 3 29 C2.01 29.33 1.02 29.66 0 30 C-0.33 29.34 -0.66 28.68 -1 28 C-1.99 28.33 -2.98 28.66 -4 29 C-3.125 25.125 -3.125 25.125 -2 24 C-1.85469013 22.30571693 -1.77283477 20.60589258 -1.71875 18.90625 C-1.68136719 17.87628906 -1.64398438 16.84632813 -1.60546875 15.78515625 C-1.57066406 14.70105469 -1.53585937 13.61695313 -1.5 12.5 C-1.43143859 10.36443906 -1.35874988 8.22900524 -1.28125 6.09375 C-1.25095703 5.14177734 -1.22066406 4.18980469 -1.18945312 3.20898438 C-1 1 -1 1 0 0 Z " fill="#F2F2F2" transform="translate(279,257)"/>
<path d="M0 0 C3.125 1.375 3.125 1.375 5 4 C5.39679515 7.37540406 5.29033535 10.61920612 5 14 C2.69 14 0.38 14 -2 14 C-2.33 12.02 -2.66 10.04 -3 8 C-4.32 8 -5.64 8 -7 8 C-7.05786668 11.79160297 -7.09355054 15.58309311 -7.125 19.375 C-7.14175781 20.45523437 -7.15851562 21.53546875 -7.17578125 22.6484375 C-7.18222656 23.6796875 -7.18867187 24.7109375 -7.1953125 25.7734375 C-7.20578613 26.72653809 -7.21625977 27.67963867 -7.22705078 28.66162109 C-7.23131867 31.1923213 -7.23131867 31.1923213 -5 33 C-6.875 33.625 -6.875 33.625 -9 34 C-9.66 33.34 -10.32 32.68 -11 32 C-10.67 31.67 -10.34 31.34 -10 31 C-10.66 30.67 -11.32 30.34 -12 30 C-12 30.99 -12 31.98 -12 33 C-12.99 33 -13.98 33 -15 33 C-15.1238616 28.94343719 -15.21445733 24.88761022 -15.2746582 20.82958984 C-15.2997593 19.45016298 -15.33384873 18.07086858 -15.37719727 16.69189453 C-15.43802875 14.70664128 -15.46357937 12.72040641 -15.48828125 10.734375 C-15.51446533 9.54038086 -15.54064941 8.34638672 -15.56762695 7.11621094 C-15 4 -15 4 -12.62573242 1.61230469 C-8.43798976 -0.95913674 -4.75741736 -0.73311022 0 0 Z " fill="#F6F6F6" transform="translate(523,250)"/>
<path d="M0 0 C25.08 0 50.16 0 76 0 C76 4.96331977 75.96369949 9.31021415 75.37890625 14.14453125 C75.24806641 15.23314453 75.11722656 16.32175781 74.98242188 17.44335938 C74.84384766 18.55517578 74.70527344 19.66699219 74.5625 20.8125 C74.36043945 22.50922852 74.36043945 22.50922852 74.15429688 24.24023438 C73.13375235 32.59874295 73.13375235 32.59874295 72 36 C66.555 35.505 66.555 35.505 61 35 C61 34.67 61 34.34 61 34 C63.97 34 66.94 34 70 34 C70.08564209 33.17274414 70.17128418 32.34548828 70.25952148 31.49316406 C70.57965836 28.41414335 70.90236805 25.33540611 71.22680664 22.25683594 C71.43508597 20.27299339 71.64041194 18.28884149 71.84570312 16.3046875 C72.04389648 14.42910156 72.04389648 14.42910156 72.24609375 12.515625 C72.36654053 11.36352539 72.4869873 10.21142578 72.61108398 9.02441406 C73 6 73 6 74 2 C50.24 2 26.48 2 2 2 C2.99 10.25 3.98 18.5 5 27 C5 29.31 5 31.62 5 34 C7.97 34 10.94 34 14 34 C14.33 35.65 14.66 37.3 15 39 C14.34 38.67 13.68 38.34 13 38 C13 37.34 13 36.68 13 36 C10.03 36 7.06 36 4 36 C3.50426371 33.56496826 3.02894396 31.12819514 2.5625 28.6875 C2.42779297 28.03587891 2.29308594 27.38425781 2.15429688 26.71289062 C0.47851919 17.76178544 0.49047749 9.31907222 0 0 Z " fill="#212121" transform="translate(363,278)"/>
<path d="M0 0 C1.80078125 0.89453125 1.80078125 0.89453125 2.8828125 2.8203125 C3.12386719 3.60792969 3.36492188 4.39554688 3.61328125 5.20703125 C3.86722656 5.98691406 4.12117187 6.76679688 4.3828125 7.5703125 C4.82870644 10.04981616 4.59635612 11.52945494 3.80078125 13.89453125 C2.15078125 14.22453125 0.50078125 14.55453125 -1.19921875 14.89453125 C-0.86921875 15.88453125 -0.53921875 16.87453125 -0.19921875 17.89453125 C-0.11815189 19.44874854 -0.09164977 21.00620152 -0.1015625 22.5625 C-0.10639648 23.90151367 -0.10639648 23.90151367 -0.11132812 25.26757812 C-0.11970703 26.19634766 -0.12808594 27.12511719 -0.13671875 28.08203125 C-0.14123047 29.02240234 -0.14574219 29.96277344 -0.15039062 30.93164062 C-0.16217249 33.25266837 -0.17862317 35.57356769 -0.19921875 37.89453125 C-2.50921875 37.89453125 -4.81921875 37.89453125 -7.19921875 37.89453125 C-7.19921875 26.01453125 -7.19921875 14.13453125 -7.19921875 1.89453125 C-2.19921875 -0.10546875 -2.19921875 -0.10546875 0 0 Z " fill="#F9F9F9" transform="translate(545.19921875,250.10546875)"/>
<path d="M0 0 C3.80577428 2.96850394 3.80577428 2.96850394 5 6 C5.37229133 9.05278892 5.3055718 11.94428199 5 15 C2.69 15 0.38 15 -2 15 C-2.33 13.02 -2.66 11.04 -3 9 C-4.32 8.67 -5.64 8.34 -7 8 C-7.33 13.94 -7.66 19.88 -8 26 C-8.66 26 -9.32 26 -10 26 C-10.33 24.35 -10.66 22.7 -11 21 C-11.99 21.33 -12.98 21.66 -14 22 C-14.10806144 19.08234109 -14.18732877 16.16868875 -14.25 13.25 C-14.28351562 12.425 -14.31703125 11.6 -14.3515625 10.75 C-14.44964621 4.66881015 -14.44964621 4.66881015 -12.29296875 1.4609375 C-8.31386262 -1.07430218 -4.53688835 -0.94549046 0 0 Z " fill="#F7F7F7" transform="translate(644,250)"/>
<path d="M0 0 C1.98 0 3.96 0 6 0 C6 0.99 6 1.98 6 3 C7.1446875 3.2165625 7.1446875 3.2165625 8.3125 3.4375 C11 4 11 4 14 5 C14.99 4.67 15.98 4.34 17 4 C17 10.93 17 17.86 17 25 C14.36 25 11.72 25 9 25 C8.82984375 24.47792969 8.6596875 23.95585937 8.484375 23.41796875 C6.44759342 17.2317864 4.25037295 11.11141892 2 5 C1.34 5 0.68 5 0 5 C0 3.35 0 1.7 0 0 Z " fill="#EBEBEB" transform="translate(574,264)"/>
<path d="M0 0 C3 1 3 1 4 3 C4.99 3.33 5.98 3.66 7 4 C8.1875 7.5625 8.1875 7.5625 9 11 C10.65 11 12.3 11 14 11 C13.67 10.34 13.34 9.68 13 9 C12.93049459 7.45976004 12.91547643 5.91665012 12.9375 4.375 C12.94652344 3.55773437 12.95554687 2.74046875 12.96484375 1.8984375 C12.97644531 1.27195312 12.98804688 0.64546875 13 0 C15.31 0 17.62 0 20 0 C19.88597936 2.27141109 19.75841495 4.54214552 19.625 6.8125 C19.55539062 8.07707031 19.48578125 9.34164063 19.4140625 10.64453125 C19 14 19 14 17 17 C12.29075305 18.81124883 8.88395398 19.33198745 4 18 C1 16 1 16 0 13 C-0.06937062 10.77181559 -0.08457084 8.54165476 -0.0625 6.3125 C-0.05347656 5.13300781 -0.04445313 3.95351563 -0.03515625 2.73828125 C-0.02355469 1.83464844 -0.01195312 0.93101562 0 0 Z " fill="#E1E1E1" transform="translate(479,270)"/>
<path d="M0 0 C0.804375 0.495 0.804375 0.495 1.625 1 C4.5391061 2.22699204 6.86867708 2.14233286 10 2 C9.67 2.66 9.34 3.32 9 4 C9.99 4.33 10.98 4.66 12 5 C12 4.34 12 3.68 12 3 C12.99 3 13.98 3 15 3 C15 9.6 15 16.2 15 23 C12.69 23 10.38 23 8 23 C4.10189868 18.96268077 3.34944729 12.31439635 2 7 C1.61031803 5.60243688 1.21558254 4.20625722 0.8125 2.8125 C0.544375 1.884375 0.27625 0.95625 0 0 Z " fill="#F0F0F0" transform="translate(217,266)"/>
<path d="M0 0 C0.66 0.33 1.32 0.66 2 1 C1.67 3.31 1.34 5.62 1 8 C1.61488281 7.98839844 2.22976562 7.97679687 2.86328125 7.96484375 C3.67152344 7.95582031 4.47976562 7.94679688 5.3125 7.9375 C6.51326172 7.92009766 6.51326172 7.92009766 7.73828125 7.90234375 C10 8 10 8 13 9 C13 11.31 13 13.62 13 16 C10.03 16 7.06 16 4 16 C3.67 15.34 3.34 14.68 3 14 C2.34 14.66 1.68 15.32 1 16 C-1.68839385 16.26991906 -4.29141936 16.08737357 -7 16 C-7.35035911 12.600219 -7.53760862 9.38533743 -7 6 C-4.0625 3.5 -4.0625 3.5 -1 2 C-0.67 1.34 -0.34 0.68 0 0 Z " fill="#F1F1F1" transform="translate(188,273)"/>
<path d="M0 0 C0.33 0 0.66 0 1 0 C1 1.98 1 3.96 1 6 C4.96 6 8.92 6 13 6 C13 8.64 13 11.28 13 14 C10.03 14 7.06 14 4 14 C3.67 13.34 3.34 12.68 3 12 C2.34 12.66 1.68 13.32 1 14 C-1.68839385 14.26991906 -4.29141936 14.08737357 -7 14 C-7 10.37 -7 6.74 -7 3 C-2 1 -2 1 -1 1 C-0.67 0.67 -0.34 0.34 0 0 Z " fill="#F0F0F0" transform="translate(607,275)"/>
<path d="M0 0 C0.66 0 1.32 0 2 0 C2 0.66 2 1.32 2 2 C3.65 2.33 5.3 2.66 7 3 C7 3.99 7 4.98 7 6 C5.35 6 3.7 6 2 6 C2.33 6.99 2.66 7.98 3 9 C3.08106686 10.55421729 3.10756898 12.11167027 3.09765625 13.66796875 C3.09282227 15.00698242 3.09282227 15.00698242 3.08789062 16.37304688 C3.07951172 17.30181641 3.07113281 18.23058594 3.0625 19.1875 C3.05798828 20.12787109 3.05347656 21.06824219 3.04882812 22.03710938 C3.03704626 24.35813712 3.02059558 26.67903644 3 29 C0.69 29 -1.62 29 -4 29 C-3.67 20.09 -3.34 11.18 -3 2 C-2.01 2 -1.02 2 0 2 C0 1.34 0 0.68 0 0 Z " fill="#FDFDFD" transform="translate(214,259)"/>
<path d="M0 0 C0.89460937 -0.00128906 1.78921875 -0.00257813 2.7109375 -0.00390625 C3.65195313 -0.00003906 4.59296875 0.00382813 5.5625 0.0078125 C6.97402344 0.00201172 6.97402344 0.00201172 8.4140625 -0.00390625 C9.75597656 -0.00197266 9.75597656 -0.00197266 11.125 0 C11.95128906 0.00112793 12.77757812 0.00225586 13.62890625 0.00341797 C15.5625 0.1328125 15.5625 0.1328125 16.5625 1.1328125 C16.60330783 3.13239614 16.60504356 5.13326504 16.5625 7.1328125 C12.54445309 7.97379906 9.54446457 8.18686195 5.5625 7.1328125 C5.2325 7.7928125 4.9025 8.4528125 4.5625 9.1328125 C3.5725 8.4728125 2.5825 7.8128125 1.5625 7.1328125 C1.2325 7.4628125 0.9025 7.7928125 0.5625 8.1328125 C-1.43708364 8.17362033 -3.43795254 8.17535606 -5.4375 8.1328125 C-5.47991723 5.79986475 -5.47842937 3.46578683 -5.4375 1.1328125 C-3.84812444 -0.45656306 -2.19850154 0.00300107 0 0 Z " fill="#EFEFEF" transform="translate(245.4375,250.8671875)"/>
<path d="M0 0 C0.19757214 7.03528614 -0.56802676 13.83649378 -1.4375 20.8125 C-1.63956055 22.50922852 -1.63956055 22.50922852 -1.84570312 24.24023438 C-2.86624765 32.59874295 -2.86624765 32.59874295 -4 36 C-9.445 35.505 -9.445 35.505 -15 35 C-15 34.67 -15 34.34 -15 34 C-12.03 34 -9.06 34 -6 34 C-5.91435791 33.17274414 -5.82871582 32.34548828 -5.74047852 31.49316406 C-5.42034164 28.41414335 -5.09763195 25.33540611 -4.77319336 22.25683594 C-4.56491403 20.27299339 -4.35958806 18.28884149 -4.15429688 16.3046875 C-3.95610352 14.42910156 -3.95610352 14.42910156 -3.75390625 12.515625 C-3.63345947 11.36352539 -3.5130127 10.21142578 -3.38891602 9.02441406 C-3 6 -3 6 -2 2 C-25.76 2 -49.52 2 -74 2 C-74 1.67 -74 1.34 -74 1 C-64.49925374 0.86953601 -54.99850647 0.73914508 -45.49775791 0.60884857 C-41.08663954 0.54835067 -36.67552153 0.48782717 -32.2644043 0.42724609 C-28.01099159 0.36883181 -23.75757799 0.31048357 -19.50416374 0.25218201 C-17.8777863 0.22987747 -16.2514092 0.20754874 -14.62503242 0.18519592 C-12.35492157 0.15399972 -10.08480957 0.12288793 -7.81469727 0.09179688 C-5.87277245 0.06514954 -5.87277245 0.06514954 -3.89161682 0.03796387 C-1 0 -1 0 0 0 Z " fill="#4F4F4F" transform="translate(439,278)"/>
<path d="M0 0 C1.67542976 0.28604898 3.34385343 0.61781233 5 1 C5 2.98 5 4.96 5 7 C5.66 7.33 6.32 7.66 7 8 C6.34 8 5.68 8 5 8 C5 13.28 5 18.56 5 24 C3.35 24.33 1.7 24.66 0 25 C-1.68516954 23.31483046 -1.13008019 21.21232212 -1.1328125 18.90625 C-1.13474609 17.36130859 -1.13474609 17.36130859 -1.13671875 15.78515625 C-1.13285156 14.70105469 -1.12898437 13.61695313 -1.125 12.5 C-1.12886719 11.41589844 -1.13273438 10.33179688 -1.13671875 9.21484375 C-1.13542969 8.18488281 -1.13414062 7.15492188 -1.1328125 6.09375 C-1.13168457 5.14177734 -1.13055664 4.18980469 -1.12939453 3.20898438 C-1 1 -1 1 0 0 Z " fill="#303030" transform="translate(516,257)"/>
<path d="M0 0 C1.65 0.33 3.3 0.66 5 1 C5 8.59 5 16.18 5 24 C3.35 24.33 1.7 24.66 0 25 C-1.68516954 23.31483046 -1.13008019 21.21232212 -1.1328125 18.90625 C-1.13474609 17.36130859 -1.13474609 17.36130859 -1.13671875 15.78515625 C-1.13285156 14.70105469 -1.12898438 13.61695313 -1.125 12.5 C-1.12886719 11.41589844 -1.13273437 10.33179688 -1.13671875 9.21484375 C-1.13542969 8.18488281 -1.13414062 7.15492188 -1.1328125 6.09375 C-1.13168457 5.14177734 -1.13055664 4.18980469 -1.12939453 3.20898438 C-1 1 -1 1 0 0 Z " fill="#1E1E1E" transform="translate(279,257)"/>
<path d="M0 0 C2.31 0 4.62 0 7 0 C7.05398987 2.27057377 7.09278742 4.54151288 7.125 6.8125 C7.14820313 8.07707031 7.17140625 9.34164063 7.1953125 10.64453125 C7 14 7 14 5 17 C1.875 17.6875 1.875 17.6875 -1 18 C-1 17.34 -1 16.68 -1 16 C-2.32 16 -3.64 16 -5 16 C-5 15.34 -5 14.68 -5 14 C-4.01 13.67 -3.02 13.34 -2 13 C-0.71553081 10.43106162 -0.67022856 8.23423663 -0.4375 5.375 C-0.35371094 4.37210937 -0.26992188 3.36921875 -0.18359375 2.3359375 C-0.12300781 1.56507813 -0.06242188 0.79421875 0 0 Z " fill="#EAEAEA" transform="translate(642,270)"/>
<path d="M0 0 C7.26 0 14.52 0 22 0 C22 1.98 22 3.96 22 6 C20.93458984 6.07347656 20.93458984 6.07347656 19.84765625 6.1484375 C18.92855469 6.22320312 18.00945313 6.29796875 17.0625 6.375 C16.14597656 6.44460938 15.22945312 6.51421875 14.28515625 6.5859375 C13.15400391 6.79089844 13.15400391 6.79089844 12 7 C11.67 7.66 11.34 8.32 11 9 C10.01 8.67 9.02 8.34 8 8 C8 7.34 8 6.68 8 6 C4.13236554 4.12456646 4.13236554 4.12456646 0 5 C0 3.35 0 1.7 0 0 Z " fill="#F5F5F5" transform="translate(658,251)"/>
<path d="M0 0 C2.31 0 4.62 0 7 0 C7 1.98 7 3.96 7 6 C6.01 6.33 5.02 6.66 4 7 C4.7763932 10.0745356 4.7763932 10.0745356 7 12 C6.67 12.66 6.34 13.32 6 14 C5.34 14 4.68 14 4 14 C3.67 14.99 3.34 15.98 3 17 C2 18 2 18 -1.0625 18.0625 C-2.031875 18.041875 -3.00125 18.02125 -4 18 C-4.33 18.66 -4.66 19.32 -5 20 C-5 19.01 -5 18.02 -5 17 C-6.65 17.66 -8.3 18.32 -10 19 C-10 17.35 -10 15.7 -10 14 C-7.03 14.495 -7.03 14.495 -4 15 C-3.67 14.01 -3.34 13.02 -3 12 C-3 12.66 -3 13.32 -3 14 C-2.34 14 -1.68 14 -1 14 C-0.22887459 9.27685687 0.09764874 4.78478822 0 0 Z " fill="#B5B5B5" transform="translate(225,250)"/>
<path d="M0 0 C1.046875 1.99609375 1.046875 1.99609375 1.75 4.4375 C1.99234375 5.24058594 2.2346875 6.04367187 2.484375 6.87109375 C3 9 3 9 3 11 C2.01 11.33 1.02 11.66 0 12 C-0.33 11.01 -0.66 10.02 -1 9 C-1.66 9 -2.32 9 -3 9 C-3.33 9.99 -3.66 10.98 -4 12 C-4.33 11.34 -4.66 10.68 -5 10 C-5.66 10.66 -6.32 11.32 -7 12 C-9.32590854 8.36576791 -9.16265833 5.22911669 -9 1 C-5.59924163 -0.60591367 -3.54403638 -1.52908021 0 0 Z " fill="#F9F9F9" transform="translate(547,251)"/>
<path d="M0 0 C1.046875 1.99609375 1.046875 1.99609375 1.75 4.4375 C1.99234375 5.24058594 2.2346875 6.04367187 2.484375 6.87109375 C3 9 3 9 3 11 C2.01 11.33 1.02 11.66 0 12 C-0.33 11.01 -0.66 10.02 -1 9 C-1.66 9 -2.32 9 -3 9 C-3.33 9.99 -3.66 10.98 -4 12 C-4.33 11.34 -4.66 10.68 -5 10 C-5.66 10.66 -6.32 11.32 -7 12 C-8.42258812 8.17679443 -9.24042276 5.08718695 -9 1 C-5.59924163 -0.60591367 -3.54403638 -1.52908021 0 0 Z " fill="#F5F5F5" transform="translate(578,251)"/>
<path d="M0 0 C2.97 0 5.94 0 9 0 C11.125 5.625 11.125 5.625 10 9 C9.34 9 8.68 9 8 9 C8 9.66 8 10.32 8 11 C9.32 10.67 10.64 10.34 12 10 C11.67 10.66 11.34 11.32 11 12 C8.35139573 12.59355614 5.70802678 12.74209269 3 13 C2 8.25 2 8.25 2 6 C1.34 6.66 0.68 7.32 0 8 C0 5.36 0 2.72 0 0 Z " fill="#DADADA" transform="translate(145,250)"/>
<path d="M0 0 C2.31 0 4.62 0 7 0 C7.17942163 3.94727588 7.09350689 6.5980513 5 10 C5.66 10.66 6.32 11.32 7 12 C6.34 12 5.68 12 5 12 C4.71125 12.78375 4.4225 13.5675 4.125 14.375 C3 17 3 17 1 19 C-0.32 18.34 -1.64 17.68 -3 17 C-2.505 15.515 -2.505 15.515 -2 14 C-2 14.66 -2 15.32 -2 16 C-1.34 16 -0.68 16 0 16 C0 10.72 0 5.44 0 0 Z " fill="#CECECE" transform="translate(553,250)"/>
<path d="M0 0 C2.31 0 4.62 0 7 0 C7.17942163 3.94727588 7.09350689 6.5980513 5 10 C5.66 10.66 6.32 11.32 7 12 C6.34 12 5.68 12 5 12 C4.67 13.32 4.34 14.64 4 16 C2.68 16 1.36 16 0 16 C0 10.72 0 5.44 0 0 Z " fill="#DBDBDB" transform="translate(584,250)"/>
<path d="M0 0 C1.32 0 2.64 0 4 0 C4 1.32 4 2.64 4 4 C3.34 4 2.68 4 2 4 C2 4.99 2 5.98 2 7 C3.98 7 5.96 7 8 7 C8.33 6.34 8.66 5.68 9 5 C9 5.66 9 6.32 9 7 C9.99 7.33 10.98 7.66 12 8 C10.68 8.33 9.36 8.66 8 9 C8 9.66 8 10.32 8 11 C9.32 11 10.64 11 12 11 C12.33 11.99 12.66 12.98 13 14 C8.90075477 14.32150943 6.65644914 14.41384837 3.125 12.1875 C0.2111366 9.18793473 0.00819219 7.48333947 -0.0625 3.3125 C-0.041875 2.219375 -0.02125 1.12625 0 0 Z " fill="#DFDFDF" transform="translate(629,275)"/>
<path d="M0 0 C1.875 0.1875 1.875 0.1875 4 1 C6.30238787 4.91405938 6.17461992 8.54719212 6 13 C3.69 13 1.38 13 -1 13 C-2.125 6.375 -2.125 6.375 -1 3 C-0.34 3 0.32 3 1 3 C0.67 2.01 0.34 1.02 0 0 Z " fill="#E8E8E8" transform="translate(493,252)"/>
<path d="M0 0 C4.82029598 3.73572939 4.82029598 3.73572939 5.33203125 7.3359375 C5.31436669 9.5758033 5.21850902 11.77120799 5 14 C2.69 14 0.38 14 -2 14 C-2 11.03 -2 8.06 -2 5 C-1.01 4.67 -0.02 4.34 1 4 C0.67 2.68 0.34 1.36 0 0 Z " fill="#EFEFEF" transform="translate(644,251)"/>
<path d="M0 0 C0.33 0 0.66 0 1 0 C1.33794471 3.02038089 1.67048433 6.04119756 2 9.0625 C2.09539062 9.91005859 2.19078125 10.75761719 2.2890625 11.63085938 C2.81056158 16.45472589 3.10532727 21.14836264 3 26 C5.97 26 8.94 26 12 26 C12.33 27.65 12.66 29.3 13 31 C12.34 30.67 11.68 30.34 11 30 C11 29.34 11 28.68 11 28 C8.03 28 5.06 28 2 28 C0.02218439 18.46849315 -1.74540388 9.73640958 0 0 Z " fill="#3D3D3D" transform="translate(365,286)"/>
<path d="M0 0 C0.99 0.33 1.98 0.66 3 1 C3 1.66 3 2.32 3 3 C4.65 2.67 6.3 2.34 8 2 C8.33 2.66 8.66 3.32 9 4 C9.99 4.66 10.98 5.32 12 6 C11.67 6.99 11.34 7.98 11 9 C9.39504433 8.88557539 7.79101881 8.75805306 6.1875 8.625 C4.84751953 8.52058594 4.84751953 8.52058594 3.48046875 8.4140625 C1 8 1 8 -2 6 C-1.34 4.02 -0.68 2.04 0 0 Z " fill="#EFEFEF" transform="translate(511,280)"/>
<path d="M0 0 C0.99 0.33 1.98 0.66 3 1 C3 4.3 3 7.6 3 11 C0.69 11 -1.62 11 -4 11 C-4 8.03 -4 5.06 -4 2 C-2.68 2 -1.36 2 0 2 C0 1.34 0 0.68 0 0 Z " fill="#F7F7F7" transform="translate(149,278)"/>
<path d="M0 0 C2.31 0 4.62 0 7 0 C7 1.65 7 3.3 7 5 C6.01 5 5.02 5 4 5 C4.33 7.31 4.66 9.62 5 12 C3.35 11.67 1.7 11.34 0 11 C0 7.37 0 3.74 0 0 Z " fill="#BEBEBE" transform="translate(642,270)"/>
<path d="M0 0 C5.625 -0.25 5.625 -0.25 9 2 C7.84826645 4.46800047 6.95216435 6.04783565 5 8 C1.875 7.625 1.875 7.625 -1 7 C-0.67 4.69 -0.34 2.38 0 0 Z " fill="#F9F9F9" transform="translate(161,250)"/>
<path d="M0 0 C0.70125 0.37125 1.4025 0.7425 2.125 1.125 C2.125 1.455 2.125 1.785 2.125 2.125 C-8.96323677 4.81888833 -18.75161463 4.53470824 -29.875 2.125 C-29.875 1.795 -29.875 1.465 -29.875 1.125 C-28.43859829 0.92926392 -27.00080496 0.74372184 -25.5625 0.5625 C-24.76199219 0.45808594 -23.96148437 0.35367187 -23.13671875 0.24609375 C-20.875 0.125 -20.875 0.125 -17.875 1.125 C-13.5277285 1.48106224 -9.76742832 1.4339175 -5.625 0 C-2.875 -0.875 -2.875 -0.875 0 0 Z " fill="#484848" transform="translate(413.875,262.875)"/>
<path d="M0 0 C3.58965226 5.38447839 2.21771861 11.43911498 1 17.5625 C0.67 19.026875 0.34 20.49125 0 22 C-3.63 21.67 -7.26 21.34 -11 21 C-11 20.67 -11 20.34 -11 20 C-8.03 20 -5.06 20 -2 20 C-1.34 13.4 -0.68 6.8 0 0 Z " fill="#585858" transform="translate(435,292)"/>
<path d="M0 0 C2.31 0 4.62 0 7 0 C7 1.32 7 2.64 7 4 C5.68 4 4.36 4 3 4 C3 5.65 3 7.3 3 9 C3.66 9 4.32 9 5 9 C5 10.32 5 11.64 5 13 C3.35 12.67 1.7 12.34 0 12 C0 8.04 0 4.08 0 0 Z " fill="#DFDFDF" transform="translate(492,270)"/>
<path d="M0 0 C2.0625 2.1875 2.0625 2.1875 4 5 C3.75 7.8125 3.75 7.8125 3 10 C-2.53846154 9.38461538 -2.53846154 9.38461538 -4.875 7.4375 C-5.24625 6.963125 -5.6175 6.48875 -6 6 C-5.34 5.01 -4.68 4.02 -4 3 C-3.34 3 -2.68 3 -2 3 C-1.67 3.33 -1.34 3.66 -1 4 C-0.67 2.68 -0.34 1.36 0 0 Z " fill="#DBDBDB" transform="translate(486,279)"/>
<path d="M0 0 C2 2 2 2 2 6 C2.66 5.34 3.32 4.68 4 4 C4 5.32 4 6.64 4 8 C3.34 8.66 2.68 9.32 2 10 C1.62731113 12.91188245 1.62731113 12.91188245 1.5859375 16.3203125 C1.54726562 17.57714844 1.50859375 18.83398438 1.46875 20.12890625 C1.4378125 21.44761719 1.406875 22.76632812 1.375 24.125 C1.33681971 25.46486918 1.29776794 26.80471383 1.2578125 28.14453125 C1.1632797 31.42954619 1.07772844 34.71455138 1 38 C0.67 38 0.34 38 0 38 C0 25.46 0 12.92 0 0 Z " fill="#777777" transform="translate(144,250)"/>
<path d="M0 0 C1.2065625 0.0309375 1.2065625 0.0309375 2.4375 0.0625 C2.7675 2.0425 3.0975 4.0225 3.4375 6.0625 C2.4475 6.3925 1.4575 6.7225 0.4375 7.0625 C0.1075 6.0725 -0.2225 5.0825 -0.5625 4.0625 C-1.2225 4.0625 -1.8825 4.0625 -2.5625 4.0625 C-2.8925 5.0525 -3.2225 6.0425 -3.5625 7.0625 C-3.8925 6.4025 -4.2225 5.7425 -4.5625 5.0625 C-5.2225 5.7225 -5.8825 6.3825 -6.5625 7.0625 C-7.2225 5.0825 -7.8825 3.1025 -8.5625 1.0625 C-7.3559375 1.0934375 -7.3559375 1.0934375 -6.125 1.125 C-3.0866539 1.050894 -3.0383461 0.074106 0 0 Z " fill="#D7D7D7" transform="translate(546.5625,255.9375)"/>
<path d="M0 0 C1.98 0 3.96 0 6 0 C5.67 3.3 5.34 6.6 5 10 C3.68 10 2.36 10 1 10 C0.67 6.7 0.34 3.4 0 0 Z " fill="#FAFAFA" transform="translate(155,279)"/>
<path d="M0 0 C1.875 0.3125 1.875 0.3125 4 1 C4.66 1.99 5.32 2.98 6 4 C5.34 4 4.68 4 4 4 C3.71125 4.78375 3.4225 5.5675 3.125 6.375 C2 9 2 9 0 11 C-1.32 10.34 -2.64 9.68 -4 9 C-3.67 8.01 -3.34 7.02 -3 6 C-3 6.66 -3 7.32 -3 8 C-2.34 8 -1.68 8 -1 8 C-0.67 5.36 -0.34 2.72 0 0 Z " fill="#AAAAAA" transform="translate(554,258)"/>
<path d="M0 0 C0.33 1.32 0.66 2.64 1 4 C1.66 4 2.32 4 3 4 C3 4.66 3 5.32 3 6 C2.01 6.33 1.02 6.66 0 7 C-0.33 6.01 -0.66 5.02 -1 4 C-1.66 4 -2.32 4 -3 4 C-3.33 4.99 -3.66 5.98 -4 7 C-4.33 6.34 -4.66 5.68 -5 5 C-5.66 5.66 -6.32 6.32 -7 7 C-7.66 5.35 -8.32 3.7 -9 2 C-3.375 0 -3.375 0 0 0 Z " fill="#CFCFCF" transform="translate(578,256)"/>
<path d="M0 0 C0.66 0 1.32 0 2 0 C2 2.97 2 5.94 2 9 C-1.63 9 -5.26 9 -9 9 C-8.01 8.34 -7.02 7.68 -6 7 C-2.55621587 3.83866694 -2.55621587 3.83866694 0 0 Z " fill="#F2F2F2" transform="translate(823,536)"/>
<path d="M0 0 C1.32 0 2.64 0 4 0 C4 2.97 4 5.94 4 9 C2.35 9 0.7 9 -1 9 C-1.09765625 2.84765625 -1.09765625 2.84765625 -1 1 C-0.67 0.67 -0.34 0.34 0 0 Z " fill="#383838" transform="translate(309,257)"/>
<path d="M0 0 C0.33 0.66 0.66 1.32 1 2 C1.66 2 2.32 2 3 2 C3.66 1.34 4.32 0.68 5 0 C5.33 1.98 5.66 3.96 6 6 C4.02 6 2.04 6 0 6 C-0.33 6.66 -0.66 7.32 -1 8 C-1 7.01 -1 6.02 -1 5 C-2.65 5.66 -4.3 6.32 -6 7 C-6 5.35 -6 3.7 -6 2 C-3.03 2.495 -3.03 2.495 0 3 C0 2.01 0 1.02 0 0 Z " fill="#818181" transform="translate(221,262)"/>
<path d="M0 0 C3.3 0 6.6 0 10 0 C10 2.97 10 5.94 10 9 C9.34 9 8.68 9 8 9 C6.66666667 7 5.33333333 5 4 3 C2.68 2.01 1.36 1.02 0 0 Z " fill="#F5F5F5" transform="translate(815,0)"/>
<path d="M0 0 C2.97 0 5.94 0 9 0 C6.76632602 4.46734796 6.36183089 4.47335919 2 6 C1.34 6.66 0.68 7.32 0 8 C0 5.36 0 2.72 0 0 Z " fill="#DFDFDF" transform="translate(145,250)"/>
<path d="M0 0 C2.375 0.125 2.375 0.125 5 1 C8 5.03448276 8 5.03448276 8 8 C5.69 8 3.38 8 1 8 C2.32 7.67 3.64 7.34 5 7 C5 6.34 5 5.68 5 5 C4.01 5.33 3.02 5.66 2 6 C1.67 5.34 1.34 4.68 1 4 C0.01 4.33 -0.98 4.66 -2 5 C-1.125 1.125 -1.125 1.125 0 0 Z " fill="#D4D4D4" transform="translate(277,281)"/>
<path d="M0 0 C0.66 0 1.32 0 2 0 C2 0.66 2 1.32 2 2 C3.65 2.33 5.3 2.66 7 3 C7 3.99 7 4.98 7 6 C5.35 6 3.7 6 2 6 C1.67 6.66 1.34 7.32 1 8 C-1 6.6875 -1 6.6875 -3 5 C-3 4.01 -3 3.02 -3 2 C-2.01 2 -1.02 2 0 2 C0 1.34 0 0.68 0 0 Z " fill="#F6F6F6" transform="translate(214,259)"/>
<path d="M0 0 C1.98 0.99 1.98 0.99 4 2 C3.67 2.99 3.34 3.98 3 5 C2.34 5 1.68 5 1 5 C1 13.25 1 21.5 1 30 C0.67 30 0.34 30 0 30 C0 20.1 0 10.2 0 0 Z " fill="#BABABA" transform="translate(210,256)"/>
<path d="M0 0 C2.97 0 5.94 0 9 0 C9 0.33 9 0.66 9 1 C6.69 1 4.38 1 2 1 C2 1.66 2 2.32 2 3 C4.64 3 7.28 3 10 3 C10 4.65 10 6.3 10 8 C9.34 7.34 8.68 6.68 8 6 C5.34462628 5.43479997 2.70855287 5.26211802 0 5 C0 3.35 0 1.7 0 0 Z " fill="#292929" transform="translate(424,313)"/>
<path d="M0 0 C0.66 0 1.32 0 2 0 C1.67 1.98 1.34 3.96 1 6 C2.32 5.34 3.64 4.68 5 4 C5.33 4.66 5.66 5.32 6 6 C6.66 6 7.32 6 8 6 C8 6.66 8 7.32 8 8 C1.6 8.49230769 1.6 8.49230769 -1.4375 6 C-1.953125 5.34 -2.46875 4.68 -3 4 C-1.625 2 -1.625 2 0 0 Z " fill="#EBEBEB" transform="translate(274,280)"/>
<path d="M0 0 C2.46800047 1.15173355 4.04783565 2.04783565 6 4 C5.67 4.66 5.34 5.32 5 6 C4.34 6 3.68 6 3 6 C2.67 6.99 2.34 7.98 2 9 C0 7 0 7 -0.125 3.375 C-0.08375 2.26125 -0.0425 1.1475 0 0 Z " fill="#B5B5B5" transform="translate(226,258)"/>
<path d="M0 0 C1.52519276 0.08937803 3.04681929 0.24537146 4.5625 0.4375 C5.80193359 0.59025391 5.80193359 0.59025391 7.06640625 0.74609375 C7.70449219 0.82988281 8.34257812 0.91367187 9 1 C8.01 1.495 8.01 1.495 7 2 C6.34786708 4.02463255 6.34786708 4.02463255 6 6 C4.35 6 2.7 6 1 6 C0.34 4.35 -0.32 2.7 -1 1 C-0.67 0.67 -0.34 0.34 0 0 Z " fill="#FDFDFD" transform="translate(247,257)"/>
<path d="M0 0 C0 1.98 0 3.96 0 6 C-0.66 6 -1.32 6 -2 6 C-2 5.34 -2 4.68 -2 4 C-2.66 4 -3.32 4 -4 4 C-4.33 4.99 -4.66 5.98 -5 7 C-5.66 6.34 -6.32 5.68 -7 5 C-7 4.01 -7 3.02 -7 2 C-4.35261084 0.5393715 -3.10551666 0 0 0 Z " fill="#F4F4F4" transform="translate(486,278)"/>
<path d="M0 0 C1.65 0 3.3 0 5 0 C4.01 0.495 4.01 0.495 3 1 C3 2.32 3 3.64 3 5 C3.66 5.33 4.32 5.66 5 6 C4.34 6 3.68 6 3 6 C2.67 6.66 2.34 7.32 2 8 C1.34 7.67 0.68 7.34 0 7 C0 4.69 0 2.38 0 0 Z " fill="#F6F6F6" transform="translate(226,251)"/>
<path d="M0 0 C1.98 0 3.96 0 6 0 C6 1.98 6 3.96 6 6 C3.03 5.505 3.03 5.505 0 5 C0 3.35 0 1.7 0 0 Z " fill="#C4C4C4" transform="translate(574,264)"/>
<path d="M0 0 C0.66 0 1.32 0 2 0 C2.66 2.64 3.32 5.28 4 8 C3.01 8.33 2.02 8.66 1 9 C-0.61949011 6.42786866 -1.04408751 5.32330841 -0.625 2.25 C-0.41875 1.5075 -0.2125 0.765 0 0 Z " fill="#C0C0C0" transform="translate(218,254)"/>
<path d="M0 0 C0.99 0.33 1.98 0.66 3 1 C3 2.66666667 3 4.33333333 3 6 C1.68 6.33 0.36 6.66 -1 7 C-1 3 -1 3 0 0 Z " fill="#D5D5D5" transform="translate(511,280)"/>
<path d="M0 0 C0.66 0.33 1.32 0.66 2 1 C2 1.99 2 2.98 2 4 C3.65 4 5.3 4 7 4 C6.67 4.99 6.34 5.98 6 7 C4.02 6.34 2.04 5.68 0 5 C-0.33 5.66 -0.66 6.32 -1 7 C-0.67 4.69 -0.34 2.38 0 0 Z " fill="#646464" transform="translate(580,262)"/>
<path d="M0 0 C-0.99 0.495 -0.99 0.495 -2 1 C-2.65213292 3.02463255 -2.65213292 3.02463255 -3 5 C-4.32 5 -5.64 5 -7 5 C-7 3.35 -7 1.7 -7 0 C-4.3333581 -1.33332095 -2.83319697 -0.67102033 0 0 Z " fill="#B0B0B0" transform="translate(591,261)"/>
<path d="M0 0 C1.32 0 2.64 0 4 0 C4.33 1.98 4.66 3.96 5 6 C4.01 6.33 3.02 6.66 2 7 C1.67 6.01 1.34 5.02 1 4 C0.34 3.67 -0.32 3.34 -1 3 C-0.67 2.01 -0.34 1.02 0 0 Z " fill="#BCBCBC" transform="translate(545,256)"/>
<path d="M0 0 C1.32 0.33 2.64 0.66 4 1 C4.33 2.32 4.66 3.64 5 5 C2.625 5.1875 2.625 5.1875 0 5 C-0.66 4.01 -1.32 3.02 -2 2 C-1.34 2 -0.68 2 0 2 C0 1.34 0 0.68 0 0 Z " fill="#D7D7D7" transform="translate(574,250)"/>
<path d="M0 0 C1.32 0.33 2.64 0.66 4 1 C4.33 2.32 4.66 3.64 5 5 C2.625 5.1875 2.625 5.1875 0 5 C-0.66 4.01 -1.32 3.02 -2 2 C-1.34 2 -0.68 2 0 2 C0 1.34 0 0.68 0 0 Z " fill="#D5D5D5" transform="translate(543,250)"/>
<path d="M0 0 C1.16945792 0.80847729 2.33550461 1.62189112 3.5 2.4375 C4.47453125 3.11619141 4.47453125 3.11619141 5.46875 3.80859375 C5.9740625 4.20175781 6.479375 4.59492187 7 5 C7 5.33 7 5.66 7 6 C4.69 6 2.38 6 0 6 C0 4.02 0 2.04 0 0 Z " fill="#F8F8F8" transform="translate(0,539)"/>
<path d="M0 0 C0.33 0 0.66 0 1 0 C1 2.64 1 5.28 1 8 C-2.63 7.67 -6.26 7.34 -10 7 C-10 6.67 -10 6.34 -10 6 C-7.03 6 -4.06 6 -1 6 C-0.67 4.02 -0.34 2.04 0 0 Z " fill="#505050" transform="translate(434,306)"/>
<path d="M0 0 C2.0625 2.1875 2.0625 2.1875 4 5 C3.75 7.8125 3.75 7.8125 3 10 C1.68 9.67 0.36 9.34 -1 9 C-0.34 8.01 0.32 7.02 1 6 C0.34 5.01 -0.32 4.02 -1 3 C-0.67 2.01 -0.34 1.02 0 0 Z " fill="#C1C1C1" transform="translate(486,279)"/>
<path d="M0 0 C1.32 0 2.64 0 4 0 C3.67 2.31 3.34 4.62 3 7 C2.67 6.34 2.34 5.68 2 5 C1.01 5.33 0.02 5.66 -1 6 C-0.67 4.02 -0.34 2.04 0 0 Z " fill="#E6E6E6" transform="translate(495,274)"/>
<path d="M0 0 C-0.875 3.875 -0.875 3.875 -2 5 C-2.99 5.33 -3.98 5.66 -5 6 C-5.66 5.67 -6.32 5.34 -7 5 C-7 4.01 -7 3.02 -7 2 C-4.35261084 0.5393715 -3.10551666 0 0 0 Z " fill="#B0B0B0" transform="translate(167,252)"/>
<path d="M0 0 C2.31 0 4.62 0 7 0 C2.25 4.875 2.25 4.875 0 6 C0 4.02 0 2.04 0 0 Z " fill="#F7F7F7" transform="translate(0,0)"/>
<path d="M0 0 C1.65 1.32 3.3 2.64 5 4 C4.67 4.99 4.34 5.98 4 7 C2.02 7 0.04 7 -2 7 C-1.01 6.34 -0.02 5.68 1 5 C0.34 4.34 -0.32 3.68 -1 3 C-0.67 2.01 -0.34 1.02 0 0 Z " fill="#C6C6C6" transform="translate(518,282)"/>
<path d="M0 0 C0.66 0.33 1.32 0.66 2 1 C1.67 2.98 1.34 4.96 1 7 C0.01 7 -0.98 7 -2 7 C-2 6.34 -2 5.68 -2 5 C-2.99 4.67 -3.98 4.34 -5 4 C-4.360625 3.525625 -3.72125 3.05125 -3.0625 2.5625 C-1.11706694 1.16261274 -1.11706694 1.16261274 0 0 Z " fill="#C9C9C9" transform="translate(188,273)"/>
<path d="M0 0 C0.99 0.33 1.98 0.66 3 1 C3 1.66 3 2.32 3 3 C3.66 3 4.32 3 5 3 C5 4.32 5 5.64 5 7 C3.35 6.67 1.7 6.34 0 6 C0 4.02 0 2.04 0 0 Z " fill="#ADADAD" transform="translate(492,276)"/>
<path d="M0 0 C0.99 0.33 1.98 0.66 3 1 C2.67 1.99 2.34 2.98 2 4 C2.99 4.33 3.98 4.66 5 5 C4.67 5.66 4.34 6.32 4 7 C2.68 6.67 1.36 6.34 0 6 C0 4.02 0 2.04 0 0 Z " fill="#F8F8F8" transform="translate(553,251)"/>
<path d="M0 0 C1.32 0 2.64 0 4 0 C4 1.32 4 2.64 4 4 C3.34 4 2.68 4 2 4 C1.67 4.99 1.34 5.98 1 7 C0.67 7 0.34 7 0 7 C0 4.69 0 2.38 0 0 Z " fill="#BBBBBB" transform="translate(629,275)"/>
<path d="M0 0 C0.33 0.66 0.66 1.32 1 2 C2.32 2 3.64 2 5 2 C5.33 2.99 5.66 3.98 6 5 C3.69 5 1.38 5 -1 5 C-0.67 4.01 -0.34 3.02 0 2 C-0.66 1.67 -1.32 1.34 -2 1 C-1.34 0.67 -0.68 0.34 0 0 Z " fill="#B0B0B0" transform="translate(636,284)"/>
<path d="M0 0 C3.875 2.75 3.875 2.75 5 5 C3.02 5 1.04 5 -1 5 C-1 2 -1 2 0 0 Z " fill="#CBCBCB" transform="translate(660,254)"/>
<path d="M0 0 C1.65 0 3.3 0 5 0 C5 1.32 5 2.64 5 4 C3.02 4 1.04 4 -1 4 C-0.67 2.68 -0.34 1.36 0 0 Z " fill="#DEDEDE" transform="translate(161,250)"/>
<path d="M0 0 C-0.75 1.9375 -0.75 1.9375 -2 4 C-4.125 4.75 -4.125 4.75 -6 5 C-6 3.68 -6 2.36 -6 1 C-3.92446352 0.4465236 -2.15634036 0 0 0 Z " fill="#FDFDFD" transform="translate(154,250)"/>
<path d="M0 0 C4 4.75 4 4.75 4 7 C1.69 7 -0.62 7 -3 7 C-1.68 6.67 -0.36 6.34 1 6 C0.34 4.35 -0.32 2.7 -1 1 C-0.67 0.67 -0.34 0.34 0 0 Z " fill="#BBBBBB" transform="translate(281,282)"/>
<path d="M0 0 C-3.99560608 2.83022097 -7.42737323 1.76210446 -12 1 C-12 0.67 -12 0.34 -12 0 C-7.66726186 -0.92844389 -4.33273814 -0.92844389 0 0 Z " fill="#5B5B5B" transform="translate(396,264)"/>
<path d="M0 0 C0.33 0.66 0.66 1.32 1 2 C2.32 1.67 3.64 1.34 5 1 C4.67 1.66 4.34 2.32 4 3 C1.35139573 3.59355614 -1.29197322 3.74209269 -4 4 C-2.68 2.68 -1.36 1.36 0 0 Z " fill="#B3B3B3" transform="translate(152,259)"/>
<path d="M0 0 C0.33 0 0.66 0 1 0 C1 1.98 1 3.96 1 6 C-0.98 6.33 -2.96 6.66 -5 7 C-4.0409375 6.1028125 -4.0409375 6.1028125 -3.0625 5.1875 C-0.79689611 3.09189663 -0.79689611 3.09189663 0 0 Z " fill="#9D9D9D" transform="translate(261,252)"/>
</svg>
